# xmcd
#
# Track frame offsets: 
#        150
#        9691
#        29492
#        48352
#        52706
#        67249
#        92425
#        117686
#        134277
#        163190
#        195119
#        215065
#        253032
#        279799
#        297243
#
# Disc length: 4421 seconds
#
# Revision: 4
# Processed by: cddbd v1.5.2PL0 Copyright (c) Steve Scherf et al.
# Submitted via: ExactAudioCopy v0.99pb5
#
DISCID=da11430f
DTITLE=ATB - Movin' Melodies
DYEAR=1999
DGENRE=Trance
TTITLE0=The First Tones
TTITLE1=Emotion
TTITLE2=Underwater World
TTITLE3=Zwischenstuck
TTITLE4=9 PM (Till I Come)
TTITLE5=Killer 2000
TTITLE6=Too Much Rain by United Deejays for Central America (ATB vs. W
TTITLE6=oody van Eyden Mix)
TTITLE7=Don't Stop
TTITLE8=Obsession
TTITLE9=My Dream
TTITLE10=Kayama
TTITLE11=Beach Vibes by EFF
TTITLE12=Movin' Melodies
TTITLE13=Sunburn
TTITLE14=9 PM (Till I Come) (Signum Mix)
EXTD=
EXTT0=
EXTT1=
EXTT2=
EXTT3=
EXTT4=
EXTT5=
EXTT6=
EXTT7=
EXTT8=
EXTT9=
EXTT10=
EXTT11=
EXTT12=
EXTT13=
EXTT14=
PLAYORDER=
